<svg width="420" height="120" viewBox="0 0 420 120" fill="none" xmlns="http://www.w3.org/2000/svg">

  <!-- ICON: human + funnel + checkmark -->

  <g transform="translate(0,0)" fill="#0A3A8C">

    <!-- Head -->

    <circle cx="50" cy="32" r="18"/>

    <!-- Shoulders / top of funnel -->

    <path d="M16 60C16 53.3726 21.3726 48 28 48H72C78.6274 48 84 53.3726 84 60V63C84 66.3137 81.3137 69 78 69H22C18.6863 69 16 66.3137 16 63V60Z"/>

    <!-- Funnel body -->

    <path d="M30 69L70 69L56 111C54.9045 114.503 51.7612 117 48.1019 117H44.8981C41.2388 117 38.0955 114.503 37 111L30 69Z"/>

    <!-- Checkmark -->

    <path d="M42 86L50 94L66 78" stroke="white" stroke-width="6" stroke-linecap="round" stroke-linejoin="round"/>

  </g>

  <!-- WORDMARK -->

  <g fill="#0A3A8C" font-family="Inter, system-ui, -apple-system, BlinkMacSystemFont, 'Segoe UI', sans-serif" font-weight="600">

    <text x="110" y="55" font-size="28">Transition</text>

    <text x="110" y="90" font-size="24">Marketing AI</text>

  </g>

</svg>

