<svg width="420" height="120" viewBox="0 0 420 120" fill="none" xmlns="http://www.w3.org/2000/svg">
  <!-- ICON: Refined human + funnel + verification checkmark (White) -->
  <g transform="translate(10, 8)">
    <!-- Human head - refined circle -->
    <circle cx="36" cy="24" r="16" fill="#FFFFFF"/>
    
    <!-- Shoulders/Top of funnel - refined with subtle curve -->
    <path d="M8 52C8 47.0294 12.0294 43 17 43H55C59.9706 43 64 47.0294 64 52V54.5C64 57.5376 61.5376 60 58.5 60H13.5C10.4624 60 8 57.5376 8 54.5V52Z" fill="#FFFFFF"/>
    
    <!-- Funnel body - refined shape -->
    <path d="M20 60L60 60L48 98C46.9045 101.503 43.7612 104 40.1019 104H37.8981C34.2388 104 31.0955 101.503 30 98L20 60Z" fill="#FFFFFF"/>
    
    <!-- Verification checkmark - refined stroke -->
    <path d="M32 80L40 88L56 72" stroke="#0A3A8C" stroke-width="5" stroke-linecap="round" stroke-linejoin="round" fill="none"/>
    
    <!-- Subtle accent dot for verification badge -->
    <circle cx="50" cy="78" r="2.5" fill="#10B981"/>
  </g>

  <!-- WORDMARK - Professional typography (White) -->
  <g fill="#FFFFFF" font-family="Inter, -apple-system, BlinkMacSystemFont, 'Segoe UI', sans-serif" font-weight="600">
    <text x="100" y="48" font-size="32" letter-spacing="-0.5px">Transition</text>
    <text x="100" y="82" font-size="24" letter-spacing="-0.3px" fill="#E5E7EB" font-weight="500">Marketing AI</text>
  </g>
</svg>
